<svg width="30" height="30" viewBox="0 0 30 30" fill="none" xmlns="http://www.w3.org/2000/svg">
    <g clip-path="url(#clip0_239_674)">
        <path
            d="M24.0007 8.33375L15.4287 0H3.42905C2.52044 0.00263787 1.64982 0.354719 1.00734 0.979346C0.364859 1.60397 0.00271329 2.4504 0 3.33375V26.6663C0.00271329 27.5496 0.364859 28.396 1.00734 29.0206C1.64982 29.6452 2.52044 29.9974 3.42905 30H20.5717C21.4804 29.9974 22.351 29.6452 22.9934 29.0206C23.6359 28.396 23.998 27.5496 24.0007 26.6663V25H30.0012V11.6663H24.0007V8.33375ZM14.5712 2.7L21.2222 9.16625H14.5712V2.7ZM28.2861 13.3337V23.3337H7.7144V13.3337H28.2861Z"
            fill="#E1E1E1" />
        <path
            d="M15.3676 18.2743C15.3676 19.3393 15.0637 20.1549 14.456 20.7214C13.8512 21.2878 12.9766 21.5711 11.832 21.5711H10V15.1016H12.0311C13.0872 15.1016 13.9074 15.3803 14.4914 15.9379C15.0755 16.4954 15.3676 17.2743 15.3676 18.2743ZM13.9427 18.3097C13.9427 16.9203 13.3291 16.2256 12.1019 16.2256H11.3718V20.4382H11.9603C13.2819 20.4382 13.9427 19.7287 13.9427 18.3097Z"
            fill="#E1E1E1" />
        <path
            d="M21.8549 18.3276C21.8549 19.3985 21.5894 20.2215 21.0584 20.7969C20.5274 21.3721 19.7663 21.6598 18.7752 21.6598C17.7839 21.6598 17.0228 21.3721 16.4918 20.7969C15.9608 20.2215 15.6953 19.3955 15.6953 18.3187C15.6953 17.242 15.9608 16.4205 16.4918 15.854C17.0258 15.2846 17.7898 15 18.7839 15C19.7782 15 20.5378 15.2861 21.0629 15.8585C21.5909 16.4307 21.8549 17.2539 21.8549 18.3276ZM17.1334 18.3276C17.1334 19.0504 17.2707 19.5946 17.5449 19.9605C17.8193 20.3262 18.2294 20.5091 18.7752 20.5091C19.8696 20.5091 20.4168 19.782 20.4168 18.3276C20.4168 16.8704 19.8726 16.1416 18.7839 16.1416C18.2382 16.1416 17.8267 16.326 17.5494 16.6947C17.2721 17.0606 17.1334 17.6049 17.1334 18.3276Z"
            fill="#E1E1E1" />
        <path
            d="M25.2191 16.1504C24.7028 16.1504 24.3031 16.3452 24.02 16.7345C23.7367 17.121 23.5951 17.6608 23.5951 18.354C23.5951 19.7967 24.1365 20.5179 25.2191 20.5179C25.6735 20.5179 26.2236 20.4044 26.8697 20.1772V21.3278C26.3387 21.549 25.7457 21.6597 25.0908 21.6597C24.1497 21.6597 23.43 21.3749 22.9313 20.8055C22.4328 20.2333 22.1836 19.4132 22.1836 18.3453C22.1836 17.6727 22.306 17.0842 22.5508 16.5797C22.7957 16.0723 23.1467 15.6843 23.604 15.4159C24.0642 15.1444 24.6026 15.0088 25.2191 15.0088C25.8475 15.0088 26.4788 15.1607 27.1131 15.4645L26.6706 16.5797C26.4286 16.4647 26.1852 16.3643 25.9405 16.2788C25.6956 16.1932 25.4551 16.1504 25.2191 16.1504Z"
            fill="#E1E1E1" />
    </g>
    <defs>
        <clipPath id="clip0_239_674">
            <rect width="30" height="30" fill="white" />
        </clipPath>
    </defs>
</svg>
    