<svg width="30" height="30" viewBox="0 0 30 30" fill="none" xmlns="http://www.w3.org/2000/svg">
    <path
        d="M10.739 7.24141H3.22463C2.83281 7.24141 2.47457 7.02004 2.29937 6.66953L1.55078 5.17246L2.29937 3.67539C2.47457 3.32488 2.83275 3.10352 3.22463 3.10352H10.739C11.1309 3.10352 11.4891 3.32488 11.6643 3.67539L12.4128 5.17246L11.6642 6.66953C11.489 7.02004 11.1309 7.24141 10.739 7.24141Z"
        fill="#E19C46" />
    <path
        d="M10.739 7.24141H3.22463C2.83281 7.24141 2.47457 7.02004 2.29937 6.66953L1.55078 5.17246L2.29937 3.67539C2.47457 3.32488 2.83275 3.10352 3.22463 3.10352H10.739C11.1309 3.10352 11.4891 3.32488 11.6643 3.67539L12.4128 5.17246L11.6642 6.66953C11.489 7.02004 11.1309 7.24141 10.739 7.24141Z"
        fill="#E19C46" />
    <path
        d="M28.4489 4.13818H1.55242C1.26678 4.13818 1.03516 4.3698 1.03516 4.65545V7.24166H28.9662V4.65539C28.9662 4.36975 28.7346 4.13818 28.4489 4.13818Z"
        fill="#EFF2FA" />
    <path d="M28.9662 6.20703H1.03516V7.2415H28.9662V6.20703Z" fill="#E1E6F2" />
    <path
        d="M28.4489 25.8622H1.55242C1.26678 25.8622 1.03516 25.6305 1.03516 25.3449C1.03516 25.0593 1.26678 24.8276 1.55242 24.8276H28.4489C28.7346 24.8276 28.9662 25.0593 28.9662 25.3449C28.9662 25.6306 28.7346 25.8622 28.4489 25.8622Z"
        fill="#E19C46" />
    <path
        d="M28.9655 5.17236H12.7335C12.5376 5.17236 12.3585 5.28305 12.2709 5.45824L11.6653 6.66943C11.4901 7.01994 11.1318 7.24131 10.74 7.24131H3.22559C2.83377 7.24131 2.47553 7.01994 2.30033 6.66943L1.69465 5.45824C1.60705 5.28305 1.42793 5.17236 1.23205 5.17236H1.03447C0.463125 5.17236 0 5.63549 0 6.20684V25.862C0 26.4333 0.463125 26.8965 1.03447 26.8965H28.9655C29.5369 26.8965 30 26.4333 30 25.862V6.20684C30 5.63549 29.5369 5.17236 28.9655 5.17236Z"
        fill="#E19C46" />
</svg>
    