<svg width="534" height="535" viewBox="0 0 534 535" fill="none" xmlns="http://www.w3.org/2000/svg">
    <path opacity="0.63"
        d="M365.365 53.9131C308.851 16.6694 229.432 24.196 179.471 79.4777C152.154 109.714 141.059 151.305 112.705 180.892C80.7814 214.243 42.6293 246.62 28.16 292.04C12.7824 340.314 26.2784 395.66 60.6672 432.579C102.518 477.48 164.028 463.984 222.165 463.27C460.226 460.285 637.167 301.383 412.017 105.496C393.201 89.0157 384.052 66.1763 365.365 53.9131Z"
        fill="#CCE9FF" />
    <path
        d="M472.035 79.6719H70.3998C62.3541 79.6719 55.8008 86.1603 55.8008 94.206V370.809H486.634V94.206C486.634 86.1603 480.081 79.6719 472.035 79.6719Z"
        fill="#0B4870" />
    <path
        d="M471.516 85.7715H70.9189C65.9227 85.7715 61.8999 89.7943 61.8999 94.7904V366.722H480.535V94.7904C480.535 89.7943 476.512 85.7715 471.516 85.7715Z"
        fill="#0E538C" />
    <path d="M76.9531 105.885H465.482V357.053H76.9531V105.885Z" fill="#0B4870" />
    <path
        d="M273.423 97.0611C273.423 98.2939 272.45 99.2671 271.217 99.2671C269.984 99.2671 269.011 98.2939 269.011 97.0611C269.011 95.8282 269.984 94.855 271.217 94.855C272.45 94.9199 273.423 95.8931 273.423 97.0611Z"
        fill="#F6F6F6" />
    <path d="M125.682 119.771H164.612V126.649H125.682V119.771Z" fill="#FFBE55" />
    <path
        d="M90.5142 119.771H106.541V126.649H90.5142V119.771ZM90.5142 132.359H106.541V139.236H90.5142V132.359ZM90.5142 147.282H106.541V154.16H90.5142V147.282ZM90.5142 162.141H106.541V169.018H90.5142V162.141ZM90.5142 177.064H106.541V183.942H90.5142V177.064ZM90.5142 191.923H106.541V198.8H90.5142V191.923ZM172.658 119.771H303.271V126.649H172.658V119.771Z"
        fill="#CCE9FF" />
    <path d="M139.437 132.358H178.368V139.236H139.437V132.358Z" fill="#FFBE55" />
    <path d="M186.414 132.358H317.026V139.236H186.414V132.358Z" fill="#CCE9FF" />
    <path d="M162.406 147.282H201.337V154.159H162.406V147.282Z" fill="#FFBE55" />
    <path d="M209.382 147.282H339.995V154.159H209.382V147.282Z" fill="#CCE9FF" />
    <path d="M185.311 162.141H224.241V169.018H185.311V162.141Z" fill="#FFBE55" />
    <path d="M232.287 162.141H362.899V169.018H232.287V162.141Z" fill="#CCE9FF" />
    <path d="M162.406 177.064H201.337V183.942H162.406V177.064Z" fill="#FFBE55" />
    <path d="M209.382 177.064H408.773V183.942H209.382V177.064Z" fill="#CCE9FF" />
    <path d="M139.437 191.922H178.368V198.8H139.437V191.922Z" fill="#FFBE55" />
    <path d="M186.414 191.922H271.218V198.8H186.414V191.922Z" fill="#CCE9FF" />
    <path opacity="0.4" d="M125.682 211.453H164.612V218.33H125.682V211.453Z" fill="#FFBE55" />
    <path opacity="0.4"
        d="M90.5142 211.453H106.541V218.33H90.5142V211.453ZM90.5142 224.04H106.541V230.918H90.5142V224.04ZM90.5142 238.964H106.541V245.841H90.5142V238.964ZM90.5142 253.822H106.541V260.7H90.5142V253.822ZM90.5142 268.746H106.541V275.623H90.5142V268.746ZM90.5142 283.604H106.541V290.482H90.5142V283.604ZM172.658 211.453H303.271V218.33H172.658V211.453Z"
        fill="#CCE9FF" />
    <path opacity="0.4" d="M139.437 224.04H178.368V230.918H139.437V224.04Z" fill="#FFBE55" />
    <path opacity="0.4" d="M186.414 224.04H317.026V230.918H186.414V224.04Z" fill="#CCE9FF" />
    <path opacity="0.4" d="M162.406 238.964H201.337V245.842H162.406V238.964Z" fill="#FFBE55" />
    <path opacity="0.4" d="M209.382 238.964H339.995V245.842H209.382V238.964Z" fill="#CCE9FF" />
    <path opacity="0.4" d="M125.682 303.07H164.612V309.948H125.682V303.07Z" fill="#FFBE55" />
    <path opacity="0.4"
        d="M90.5142 303.07H106.541V309.948H90.5142V303.07ZM90.5142 315.722H106.541V322.6H90.5142V315.722ZM90.5142 330.581H106.541V337.459H90.5142V330.581ZM172.658 303.07H303.271V309.948H172.658V303.07Z"
        fill="#CCE9FF" />
    <path opacity="0.4" d="M139.437 315.722H178.368V322.6H139.437V315.722Z" fill="#FFBE55" />
    <path opacity="0.4" d="M186.414 315.722H317.026V322.6H186.414V315.722Z" fill="#CCE9FF" />
    <path opacity="0.4" d="M162.406 330.581H201.337V337.458H162.406V330.581Z" fill="#FFBE55" />
    <path opacity="0.4" d="M209.382 330.581H339.995V337.458H209.382V330.581Z" fill="#CCE9FF" />
    <path opacity="0.4" d="M185.311 253.822H224.241V260.7H185.311V253.822Z" fill="#FFBE55" />
    <path opacity="0.4" d="M232.287 253.822H431.677V260.7H232.287V253.822Z" fill="#CCE9FF" />
    <path opacity="0.4" d="M162.406 268.746H201.337V275.623H162.406V268.746Z" fill="#FFBE55" />
    <path opacity="0.4" d="M209.382 268.746H339.995V275.623H209.382V268.746Z" fill="#CCE9FF" />
    <path opacity="0.4" d="M139.437 283.604H178.368V290.482H139.437V283.604Z" fill="#FFBE55" />
    <path opacity="0.4" d="M186.414 283.604H317.026V290.482H186.414V283.604Z" fill="#CCE9FF" />
    <path
        d="M515.248 365.878H27.1864C24.3964 365.878 22.0605 368.149 22.0605 371.004V377.622C22.0605 380.412 24.3315 382.748 27.1864 382.748H515.313C518.103 382.748 520.439 380.477 520.439 377.622V371.004C520.374 368.149 518.103 365.878 515.248 365.878Z"
        fill="#D3D3D3" />
    <path
        d="M313.068 373.21H229.367C228.264 373.21 227.355 374.118 227.355 375.221C227.355 376.324 228.264 377.233 229.367 377.233H313.133C314.236 377.233 315.144 376.324 315.144 375.221C315.079 374.118 314.171 373.21 313.068 373.21Z"
        fill="#F7F7F7" />
    <path
        d="M381.91 438.743L381.845 449.19C381.845 449.19 383.143 455.873 384.246 463.01C385.284 470.147 386.128 477.739 385.025 479.491C382.884 482.994 378.666 479.491 377.952 475.987C377.239 472.483 376.201 450.617 376.201 450.617L375.487 436.537L381.91 438.743ZM392.551 437.316L390.929 446.724C390.929 446.724 387.75 472.418 389.502 476.311C391.254 480.204 396.899 478.453 396.574 473.132C396.25 467.876 397.612 449.19 397.612 449.19L400.792 437.9L392.551 437.316Z"
        fill="#0B4870" />
    <path
        d="M388.204 322.795L387.426 334.344L417.273 348.748C422.658 351.668 425.253 357.962 423.502 363.802L402.868 440.56L392.616 437.316L401.635 366.721C402.284 362.374 399.3 358.351 394.952 357.638L384.311 355.951L373.021 344.401L386.128 356.145C389.307 359 390.865 363.218 390.281 367.435L381.91 438.743L372.632 441.079L368.479 370.939C368.155 366.462 365.17 362.699 360.953 361.336L342.59 355.496C339.671 353.745 337.854 350.565 337.724 347.126L338.503 322.405L388.204 322.795Z"
        fill="#0B4870" />
    <path
        d="M336.556 348.683L341.487 252.784C341.487 252.784 361.861 251.551 367.96 251.551C371.269 251.551 376.914 253.109 381.391 254.536C385.609 255.899 389.048 255.769 391.124 259.662L424.54 323.768L403.971 325.714L397.093 317.928L400.597 312.673L388.074 283.215L390.54 336.745L336.556 348.683Z"
        fill="#FFBE55" />
    <path opacity="0.08"
        d="M388.529 271.536L410.719 311.569L403.842 319.68C403.842 319.68 401.052 320.264 398.391 319.356L397.159 317.928L400.662 312.672L388.14 283.215L388.529 271.536Z"
        fill="#0F0F0F" />
    <path
        d="M368.804 280.555C362.056 280.555 349.728 262.971 349.728 256.223C349.728 254.86 349.988 253.563 350.377 252.33C356.671 252.006 364.522 251.616 367.961 251.616C369.453 251.616 371.399 251.941 373.541 252.395C373.93 253.628 374.19 254.86 374.19 256.223C374.125 262.971 375.552 280.555 368.804 280.555Z"
        fill="white" />
    <path opacity="0.08" d="M339.022 269.395L336.556 349.267L369.518 341.352L339.022 269.395Z"
        fill="#0F0F0F" />
    <path
        d="M369.972 241.754C369.388 242.922 365.365 258.624 365.365 258.624C365.365 258.624 363.938 261.219 360.499 260.895C357.06 260.635 355.632 255.769 355.632 255.769L361.667 236.044L369.972 241.754Z"
        fill="#FCD2B1" />
    <path
        d="M348.819 232.086C348.819 242.921 360.304 254.925 371.14 254.925C381.975 254.925 388.01 242.921 388.01 232.086C388.01 221.25 379.25 212.491 368.414 212.491C357.579 212.426 348.819 221.25 348.819 232.086Z"
        fill="#FFBCC6" />
    <path
        d="M372.41 255.43C384.436 253.47 392.595 242.132 390.634 230.107C388.674 218.082 377.336 209.923 365.311 211.884C353.286 213.844 345.127 225.181 347.088 237.206C349.048 249.232 360.385 257.391 372.41 255.43Z"
        fill="#FFE3CA" />
    <path
        d="M364.716 339.47C365.56 339.21 372.827 335.642 377.953 335.642C383.078 335.642 389.372 341.092 389.372 341.092C389.372 341.092 390.216 343.947 386.777 343.363C383.338 342.779 387.231 345.504 387.231 345.504C387.231 345.504 387.036 345.634 383.014 346.218C378.991 346.802 363.418 345.958 363.418 345.958L364.716 339.47Z"
        fill="#FFE3CA" />
    <path
        d="M341.488 252.849L338.698 315.917L364.651 339.405L363.419 346.023L326.889 326.493C323.385 324.611 321.373 320.718 321.893 316.76L328.576 268.486C329.095 262.452 332.793 257.132 338.179 254.471L341.488 252.849ZM362.056 351.409H428.109V346.542H362.056C360.694 346.542 359.655 347.645 359.655 348.943C359.59 350.306 360.694 351.409 362.056 351.409Z"
        fill="#FFBE55" />
    <path
        d="M380.159 351.409H443.875C446.665 351.409 449.131 349.527 449.91 346.802L461.135 304.432C462.173 300.474 459.188 296.646 455.1 296.646H399.494C396.704 296.646 394.239 298.528 393.46 301.253L380.159 351.409Z"
        fill="#FFBE55" />
    <path opacity="0.22"
        d="M380.159 351.409H443.875C446.665 351.409 449.131 349.527 449.91 346.802L461.135 304.432C462.173 300.474 459.188 296.646 455.1 296.646H399.494C396.704 296.646 394.239 298.528 393.46 301.253L380.159 351.409Z"
        fill="white" />
    <path
        d="M417.662 327.79C416.948 330.58 418.7 332.787 421.555 332.787C424.41 332.787 427.265 330.516 427.978 327.79C428.692 325 426.94 322.794 424.085 322.794C421.23 322.729 418.376 325 417.662 327.79Z"
        fill="white" />
    <path
        d="M368.869 211.583C380.224 211.583 389.502 220.147 390.8 231.113C386.972 233.968 381.975 235.201 377.239 234.422C371.659 233.449 366.663 229.62 364.327 224.495C364.522 226.96 364.651 229.426 364.262 231.827C363.873 234.227 362.835 236.628 360.888 238.185C360.758 236.498 360.564 234.681 359.72 233.189C358.812 231.697 356.93 230.659 355.373 231.307C354.205 231.762 353.491 232.93 353.296 234.162C353.102 235.395 353.426 236.628 353.88 237.796C354.594 239.613 355.632 241.3 356.93 242.662C354.335 243.052 351.545 243.376 348.949 243.116C347.587 240.197 346.743 237.017 346.743 233.578C346.743 221.445 356.67 211.583 368.869 211.583Z"
        fill="#2A94F4" />
    <path
        d="M349.857 237.277C349.857 240.975 352.842 243.96 356.541 243.96C360.239 243.96 363.224 240.975 363.224 237.277C363.224 233.578 360.239 230.594 356.541 230.594C352.907 230.594 349.857 233.578 349.857 237.277ZM392.551 437.316L391.384 444.388L398.391 446.594L400.338 439.652L392.551 437.316ZM381.846 446.594L376.006 447.697L375.681 440.301L381.91 438.743L381.846 446.594Z"
        fill="#FFE3CA" />
    <path
        d="M356.541 221.769C361.988 221.769 366.403 217.354 366.403 211.907C366.403 206.46 361.988 202.044 356.541 202.044C351.094 202.044 346.678 206.46 346.678 211.907C346.678 217.354 351.094 221.769 356.541 221.769Z"
        fill="#2A94F4" />
</svg>
    