<svg width="24" height="24" viewBox="0 0 24 24" fill="none" xmlns="http://www.w3.org/2000/svg">
    <path
        d="M22.4999 11.175H1.49995C1.04995 11.175 0.637451 11.55 0.637451 12.0375C0.637451 12.4875 1.01245 12.9 1.49995 12.9H22.4999C22.9499 12.9 23.3624 12.525 23.3624 12.0375C23.3624 11.55 22.9499 11.175 22.4999 11.175Z"
        fill="white" />
    <path
        d="M22.4999 17.55H1.49995C1.04995 17.55 0.637451 17.925 0.637451 18.4125C0.637451 18.9 1.01245 19.275 1.49995 19.275H22.4999C22.9499 19.275 23.3624 18.9 23.3624 18.4125C23.3624 17.925 22.9499 17.55 22.4999 17.55Z"
        fill="white" />
    <path
        d="M1.49995 6.4501H22.4999C22.9499 6.4501 23.3624 6.0751 23.3624 5.5876C23.3624 5.1001 22.9874 4.7251 22.4999 4.7251H1.49995C1.04995 4.7251 0.637451 5.1001 0.637451 5.5876C0.637451 6.0751 1.04995 6.4501 1.49995 6.4501Z"
        fill="white" />
</svg>
    