<?xml version="1.0" standalone="no"?>
<svg version="1.1" id="Layer_1" xmlns="http://www.w3.org/2000/svg" xmlns:xlink="http://www.w3.org/1999/xlink" x="0px" y="0px" width="595.28px" height="595.28px" viewBox="0 0 595.28 595.28" enable-background="new 0 0 595.28 595.28" xml:space="preserve">
<path id="color_x5F_2" fill="#79fffe" d="M245.522,201.303l-1-1.5c0,0,1-11.5,1-13.5s2.5-9.5,8-14.5s19-5.5,31-3.5
	s17.5,23.833,17.5,23.833l-30.668,6.333l-34.832,12.833C236.522,211.303,254.522,196.803,245.522,201.303z M477.022,334.803
	c-13,0-31-12-39-16s-17-25-17-25s6-11-8-35s-30-41-51-49s-41-8-41-8l-13,3l-5-2l-5.963,23h-1.537l-8,3l-6,4l-6,5
	c0,0-7.5,3.5-14.5,2.5s-14.5-30-14.5-30l-4.5,10l-2,11.5c0,0,1,6,4,15.5s28.5,10.5,32.5,10c2.676-0.334,12.729-3.576,19.096-5.687
	c-1.496,2.902-7.102,12.789-15.596,16.187c-10,4-31,10-31,10l1,11l23,3l7,3c0,0,5-1,14-4s22-8,28-15
	c2.201-2.567,6.15-9.039,10.27-16.201c7.477,2.796,20.807,8.759,25.73,17.201c7,12,12,23,12,23s-28,20-35,38s-1,53-1,53l20,34l6,6
	l78-1c0,0-37-34-41-47s-8-28-4-37s4-9,4-9s19,39,35,45s43,7,50,6s23-5,23-5l11-60C516.022,322.803,490.022,334.803,477.022,334.803z
	"></path>
<path id="color_x5F_1" d="M265.792,223.653c-1.548,1.156-4.542,2.834-6.428,1.409c-1.598-1.207-1.462-3.786-1.341-5.55
	c0.055-0.804,2.944-1.421,2.877-0.438c-0.091,1.327-0.12,2.928,0.517,4.144c0.178,0.341,0.515,0.849,0.946,0.905
	c0.025-0.014,0.048-0.026,0.1-0.054c0.376-0.204,0.717-0.438,1.06-0.693c0.55-0.411,1.366-0.633,2.049-0.549
	C266.145,222.897,266.259,223.306,265.792,223.653z M267.079,229.295c-0.019-0.765-2.922-0.238-2.898,0.776s0.334,1.968,0.65,2.922
	c0.299,0.897,3.177,0.062,2.898-0.776C267.412,231.263,267.103,230.31,267.079,229.295z M256.725,213.398
	c-0.718-0.079-1.521,0.236-1.89,0.875c-0.348,0.6-0.706,1.292-1.244,1.749c-0.066,0.057-0.381,0.173-0.229,0.153
	c-0.276,0.038-0.561-0.038-0.825-0.108c-0.708-0.188-1.549-0.018-2.05,0.549c-0.421,0.477-0.295,1.183,0.364,1.358
	c1.354,0.358,2.765,0.417,4.026-0.286c1.254-0.7,2.018-1.904,2.719-3.116C257.963,213.939,257.279,213.458,256.725,213.398z
	 M270.374,208.423c-0.649,0.081-1.361,0.363-1.646,0.986c-0.341,0.745-0.843,1.41-1.433,1.974c-0.149,0.143-0.396,0.374-0.602,0.47
	c-0.025-0.007-0.049-0.014-0.087-0.023c-0.26-0.104-0.438-0.363-0.604-0.571c-0.624-0.782-3.412,0.23-2.691,1.136
	c1.145,1.435,3.02,1.306,4.567,0.631c1.719-0.75,2.983-2.312,3.747-3.978C271.909,208.428,270.644,208.39,270.374,208.423z
	 M262.606,206.158c1.666-0.555,3.342-1.108,5.073-1.417c0.521-0.093,1.477-0.314,1.665-0.916c0.187-0.591-0.931-0.551-1.218-0.5
	c-2.266,0.404-4.436,1.104-6.614,1.83c-0.279,0.093-1.259,0.626-0.806,1.042C261.178,206.63,262.101,206.326,262.606,206.158z
	 M253.715,210.419c0.667-0.008,1.52-0.202,1.907-0.81c0.365-0.572-0.307-0.929-0.804-0.923c-2.055,0.025-3.994,0.474-5.684,1.691
	c-0.387,0.279-0.874,0.869-0.235,1.201c0.593,0.308,1.535,0.123,2.058-0.253C251.822,210.702,252.646,210.432,253.715,210.419z
	 M540.085,384.874c-0.197,0.321-0.62,0.576-1.085,0.714l0.022,0.715l-0.34-0.641c-0.492,0.082-0.99,0.024-1.294-0.259
	c-0.239-0.223-0.329-0.719-0.359-1.262c-0.891-1.545-3.214-5.406-3.521-5.959c-1.836-3.322-3.683-6.637-5.537-9.948
	c-2.547-4.55-5.256-9.372-7.756-13.802l-1.164,0.083c-3.156,0.554-7.57,1.275-9.174,2.205c-1.507,8.091-3.015,16.185-4.375,24.3
	c1.047,0.033,1.814,0.822,0.328,1.423c-0.201,0.081-0.403,0.157-0.605,0.237c-0.166,1.01-0.346,2.02-0.506,3.031
	c-0.22,1.388-3.189,1.725-2.945,0.185c0.107-0.678,0.229-1.354,0.34-2.031c-22.975,8.366-47.425,8.791-69.742-2.649
	c-8.645-4.431-16.323-10.252-21.614-18.523c-5.036-7.873-8.556-16.604-12.348-25.122c-4.521,10.223-6.103,21.653-4.129,32.815
	c1.643,9.291,6.241,15.673,12.28,22.733c7.032,8.221,14.533,16.033,22.104,23.755c2.756,2.811,5.534,5.6,8.281,8.419
	c0.823,0.846,2.4,1.969,2.823,3.129c0.078,0.216-0.153,0.469-0.3,0.582c-0.115,0.088-0.249,0.158-0.38,0.229
	c-0.459,0.541-2.143,1.081-2.695,0.615c-0.013-0.01-0.686-0.023-1.518-0.034c2.271,2.733,4.376,7.334,4.871,8.194
	c3.793,6.592,7.57,13.241,10.999,20.037c0.376,0.154,0.594,0.389,0.38,0.739c0.022,0.044,0.047,0.088,0.068,0.132
	c0.48,0.963-2.126,1.823-2.82,0.888h-53.658c-5.342,0.097-10.683,0.193-16.022,0.323c-4.082,0.099-8.185,0.123-12.261,0.394
	c0.002,0-0.013,0-0.041-0.001c-0.74,0.201-1.393,0.248-1.814-0.01c-0.265-0.162-0.317-0.361-0.262-0.565
	c-0.011-0.095,0.046-0.206,0.185-0.334c0.021-0.026,0.034-0.052,0.059-0.077c0.254-0.266,0.611-0.431,1.011-0.542
	c0.732-0.337,1.473-0.658,2.217-0.969c2.582-1.08,5.178-2.124,7.778-3.158c10.726-4.267,21.493-8.432,32.27-12.569
	c-0.966-1.871-1.938-3.738-2.933-5.595c-0.928-1.733-2.093-5.462-3.743-6.631c-1.998,0.032-3.995,0.061-5.993,0.094
	c-8.564,0.141-17.129,0.302-25.694,0.41c-1.87,0.023-9.02,1.276-10.577-0.225c-0.182-0.175-0.119-0.379,0.076-0.572
	c-0.02-0.014-0.043-0.024-0.062-0.04c-12.098-10.447-20.731-24.048-25.128-39.423c-2.467-8.625-3.932-17.507-4.542-26.455
	c-0.479-7.024-1.079-14.21,1.262-20.989c6.396-18.518,22.252-30.257,36.027-43.541c-4.076-17.505-17.31-31.688-33.882-38.258
	c-11,18.479-28.102,32.032-50.473,33.658c9.867,3.742,19.504,9.808,20.297,20.611c0.053,0.72-0.707,1.249-1.463,1.412
	c0.182,0.01,0.349,0.046,0.488,0.12c3.823,2.024,5.505,5.514,4.885,9.769c-0.179,1.229-3.131,1.656-2.926,0.254
	c0.545-3.743-0.848-6.633-4.209-8.414c-1.016-0.538,0.119-1.456,1.205-1.681c-0.469-0.024-0.846-0.23-0.879-0.684
	c-0.394-5.364-3.211-9.868-7.464-13.098c-4.72-3.584-10.153-6.177-15.915-8.143c-0.149-0.003-0.295,0.002-0.445-0.002
	c-0.558-0.016-0.825-0.203-0.899-0.456c-10.689-3.438-22.418-4.796-32.897-6.143c-7.416-0.953-14.803-1.996-22.184-3.082
	c-0.521,0.138-1.072,0.089-1.388-0.206c-4.873-0.721-9.745-1.46-14.62-2.205c-0.797,0.363-2.053,0.64-2.244,0.216
	c-0.09-0.199-0.177-0.4-0.267-0.6c-1.507-0.23-3.011-0.459-4.519-0.69c-19.079-2.923-38.186-5.661-57.259-8.619
	c-5.689-0.882-11.425-1.671-17.062-2.855c-0.287-0.061-0.773-0.218-1.281-0.432c-0.167,0.115-0.365,0.216-0.628,0.281
	c-8.063,2.005-15.55-7.153-19.979-12.53c-8.889-10.791-16.221-22.901-22.96-35.119c-4.948-8.972-9.617-18.057-13.336-27.606
	c-1.802-4.625-5.976-11.617-4.3-16.815c1.618-5.019,6.784-6.943,11.466-8.311c-2.217-6.27-9.236-11.084-15.622-11.316
	c-1.956-0.071-0.492-2.265,0.975-2.212c7.892,0.286,16.203,6.56,17.962,14.433c0.89,0.889,1.495,2.746,1.989,3.732
	c1.599,3.188,3.134,6.407,4.664,9.627c4.716,9.928,9.363,19.889,14.078,29.818c5.294,11.148,10.615,22.29,16.234,33.279
	c2.49,4.87,4.922,10.009,7.804,14.788c6.9-7.493,13.335-15.456,19.994-23.159c21.561-24.941,43.36-49.8,66.693-73.111
	c9.369-9.359,18.944-18.89,29.726-26.643c3.994-2.872,12.207-9.33,17.593-6.347c0.256,0.142,0.418,0.387,0.174,0.651
	c-1.516,1.647-3.042,3.286-4.57,4.921c-22.932,24.546-46.08,48.896-68.992,73.461c5.598,23.674,13.729,46.893,23.652,69.095
	c4.735,0.748,9.472,1.48,14.21,2.198c-0.14-3.228,1.291-5.263,4.488-7.044c0.083-0.046,0.187-0.077,0.286-0.11
	c-0.532-1.021-1.063-2.044-1.569-3.079c-0.355-0.728-1.779-2.903-2.197-4.441c-4.901,0.312-9.257-1.667-11.818-6.096
	c-2.269-3.924-2.36-9.139,0.019-13.01c-0.402-0.064-0.496-0.25,0.259-0.618c3.837-1.868,6.952-2.197,8.052,2.516
	c0.279,1.192,0.496,2.524,1.092,3.61c1.155,2.104,5.534,4.37,6.547,0.445c0.901-3.492-0.55-6.844-3.23-9.125
	c-0.157-0.134-0.064-0.267,0.053-0.39c8.056-8.522,16.551,0.85,15.734,10.307c-0.233,2.713-2.021,5.52-3.598,7.661
	c-0.896,1.218-0.675,0.284,0.122,1.802c1.528,2.911,2.87,5.925,4.187,8.941c0.335-0.492,0.645-1.02,0.91-1.603
	c0.073-0.162,0.191-0.299,0.334-0.416c0.033-0.053,0.049-0.112,0.094-0.16c0.525-0.561,1.33-0.688,2.049-0.549
	c3.026,0.583,6.941,2.654,8.375,5.708c0.373-0.458,0.823-0.88,1.39-1.245c5.558-3.586,13.325-4.826,19.57-6.566
	c10.252-2.856,18.497-7.241,25.569-15.34c0.488-0.56,0.959-1.132,1.432-1.703c-15.446,6.442-36.026,9.965-49.293-1.691
	c-11.526-10.127-7.56-28.723-2.363-40.977c0.082-0.192,0.239-0.351,0.438-0.48c-0.045-0.233-0.093-0.466-0.137-0.699
	c-2.42,1.228-4.809,2.514-7.166,3.828c-0.238,0.133-2.545,0.793-2.283-0.005c1.313-3.994,4.984-7.206,9.069-9.668
	c-0.171-0.042-0.29-0.122-0.317-0.248c-2.696-12.479-0.079-25.662,11.94-32.124c8.379-4.505,18.313-5.513,27.54-3.43
	c2.492-5.58,5.313-11.036,8.765-16.083c2.099-3.068,4.579-6.091,8.251-7.184c2.541-0.756,5.561,0.758,4.83,3.762
	s-2.418,5.626-4.205,8.192c2.302-2.384,4.695-4.666,7.397-6.584c2.09-1.484,6.2-3.604,8.843-2.249
	c4.29,2.198-2.278,9.17-7.82,14.186c1.067-0.75,2.148-1.477,3.273-2.13c2.37-1.376,5.697-3.224,8.485-1.992
	c3.107,1.373,1.14,5.357-0.543,6.896c-3.265,2.986-7.59,4.748-10.765,7.817c3.742-1.367,8.229-3.5,11.438-1.885
	c2.155,1.085,3.901,3.599,2.339,5.936c-1.891,2.828-5.947,3.922-9.028,4.798c-4.104,1.167-8.495,1.884-12.399,3.655
	c2.032,5.905,2.609,12.574,2.068,18.855c1.335-0.025,2.504,0.211,3.523,0.666c0.181-0.192,0.482-0.371,0.925-0.49
	c35.28-9.487,74.985,12.042,96.765,39.109c10.034,12.47,19.852,29.669,16.896,46.197c-0.121,0.676-0.271,1.343-0.413,2.014
	c0.17,0.077,0.307,0.189,0.383,0.354c7.607,16.647,17.845,31.355,35.275,38.628c11.768,4.91,23.086,6.242,35.232,1.606
	c7.219-2.754,13.752-6.605,20.29-10.663c0.468-0.29,1.286-0.322,1.83-0.165c0.515,0.02,0.976,0.223,1.041,0.733
	c0.291,2.295-0.552,5.146-1.13,7.596c2.584-1.101,5.757-1.712,8.11-2.521c2.759-0.948,5.521-1.89,8.271-2.863
	c1.032-0.366,4.493-1.511,4.601-1.637c0.579-0.682,2.463-0.723,2.629-0.028c0.157,0.06,0.301,0.142,0.4,0.278
	c0.228,0.31,0.102,0.621-0.195,0.875c-0.859,2.011-0.039,7.987-0.029,10.111c0.031,7.076,0.144,14.152,0.286,21.227
	c0.142,7.021,0.302,14.042,0.536,21.06c0.04,1.206-0.263,5.876,0.033,8.112C540.087,383.865,540.293,384.535,540.085,384.874z
	 M119.913,267.688c-4.264-5.824-7.45-12.64-10.706-19.007c-5.433-10.623-10.608-21.376-15.729-32.151
	c-4.918-10.347-9.761-20.729-14.677-31.078c-1.575-3.315-3.144-6.635-4.789-9.916c-0.173-0.345-0.358-0.801-0.562-1.283
	c-0.673,0.011-1.309-0.295-1.34-1.023c-0.023-0.538-0.091-1.068-0.186-1.593c-0.014-0.011-0.025-0.023-0.039-0.035
	c-6.889,2.093-10.821,5.461-8.342,13.014c1.538,4.685,3.376,9.364,5.306,13.902c3.72,8.749,8.253,17.196,12.937,25.459
	c5.879,10.374,12.121,20.702,19.557,30.049c3.43,4.313,11.016,15.052,17.849,14.304C119.181,268.092,119.39,267.871,119.913,267.688
	z M125.529,268.529c9.069-10.25,18.435-20.244,27.496-30.502c7.86-8.899,15.89-17.658,23.999-26.346
	c-0.061-0.255-0.124-0.51-0.184-0.766c-0.084-0.362,0.908-0.764,1.756-0.915c13.446-14.373,27.102-28.563,40.586-42.87
	c9.879-10.481,19.791-20.934,29.593-31.487c1.056-1.136,3.149-2.201,0.885-2.164c-1.3,0.021-2.563,0.525-3.728,1.064
	c-4.308,1.994-8.196,4.958-11.885,7.906c-24.824,19.841-46.185,44.473-67.264,68.12c-15.247,17.104-29.615,35.096-45.197,51.889
	c-0.232,0.251-0.84,0.438-1.43,0.52c1.072,1.71,2.211,3.367,3.441,4.936c0.074,0.094,0.1,0.189,0.097,0.284
	c0.176,0.036,0.35,0.078,0.525,0.112c0.431,0.083,0.862,0.158,1.294,0.239C125.521,268.543,125.522,268.537,125.529,268.529z
	 M200.259,280.168c-9.398-21.218-17.152-43.352-22.619-65.913c-16.655,17.884-33.18,35.887-49.375,54.189
	c-0.005,0.006-0.006,0.01-0.012,0.016c-0.016,0.017-0.031,0.033-0.047,0.05c-0.145,0.153-0.451,0.288-0.811,0.389
	c14.216,2.612,28.6,4.466,42.887,6.596C180.284,276.984,190.271,278.584,200.259,280.168z M224.239,272.271
	c0.747,1.508,1.521,4.071,2.793,5.233c2.5,0.898,5.055,0.542,7.119-0.911c-0.723-1.659-1.455-3.314-2.208-4.96
	c-0.444-0.974-2.058-6.077-3.136-6.39c-0.134-0.039-0.34-0.127-0.24-0.312c1.74-3.221,4.106-5.602,4.314-9.532
	c0.154-2.912-0.704-6.083-2.38-8.493c-1.291-1.858-4.224-5.475-6.97-2.569c-0.985,1.042,0.781,2.194,1.228,2.959
	c1.194,2.048,2.223,4.93,1.214,7.287c-1.55,3.622-5.843,4.499-9.375,3.559c-3.554-0.945-3.532-8.984-6.281-9.454
	c-0.022,0.087-0.06,0.18-0.131,0.284c-5.182,7.611,0.985,18.395,10.208,17.166c0.361-0.048,0.631-0.018,0.824,0.063
	c0.003,0,0.007,0,0.011,0c0.301,0.022,0.516,0.178,0.703,0.391c0.145,0.164,0.117,0.34-0.009,0.51
	c0.036,0.139,0.07,0.301,0.117,0.417c0.18,0.441,0.367,0.878,0.563,1.312C223.129,269.988,223.676,271.134,224.239,272.271z
	 M246.922,286.792c-0.144-1.94-0.407-4.054-0.169-5.982c-0.512,0.008-0.93-0.177-0.953-0.618c-0.162-3.142-3.216-5.367-6.128-6.371
	c-3.342,6.227-10.924,8.35-16.829,4.404c-1.813,1.303-2.204,2.834-1.862,5.154c0.755,0.112,1.508,0.233,2.263,0.344
	C231.117,284.885,239.037,285.735,246.922,286.792z M304.209,205.921c-1.223,8.267-1.974,16.552-4.322,24.605
	c-0.05,0.171-0.159,0.322-0.302,0.456c2.852,1.224,5.233,3.012,7.612,4.939c0.28-0.504,0.552-1.014,0.826-1.521
	c3.55-9.072,5.401-28.758-3.699-30.122c-0.048,0.422-0.101,0.842-0.159,1.26C304.21,205.646,304.231,205.771,304.209,205.921z
	 M286.8,206.707c-0.399,0.812-2.264,1.277-2.701,0.521c0-0.001-0.001-0.002-0.001-0.002c-5.12-1.072-10.556-2.953-13.441-7.589
	c-0.005-0.008-0.006-0.017-0.011-0.025c-8.125,1.199-15.82,4.064-23.199,7.619c0.072,0.086,0.129,0.186,0.152,0.311
	c1.694,9.002,5.741,35.188,19.316,33.22c8.004-1.16,14.241-6.474,19.834-11.892c1.532-1.485,3.719-2.635,5.742-3.28
	c1.85-0.59,4.311-0.627,6.076-1.458c0.766-3.835,1.31-7.706,1.834-11.587c-3.665,0.522-7.157-0.626-9.809-3.369
	c-0.256-0.266-0.089-0.709,0.154-0.915c1.84-1.554,4.604-5.424,2.341-7.773c-3.579-3.715-8.337,1.31-6.455,5.237
	C287.429,205.885,287.278,206.32,286.8,206.707z M285.988,167.363c7.802,2.253,12.827,7.845,15.675,14.742
	c5.223-2.219,11.049-2.67,16.251-4.938c1.081-0.471,3.457-1.307,3.54-2.784c0.162-2.876-2.885-3.185-5.025-2.595
	c-3.253,0.896-6.35,2.229-9.689,2.792c-1.676,0.282-1.452-1.284-0.364-1.91c1.919-2.25,4.435-3.835,6.901-5.424
	c2.118-1.364,7.964-4.338,6.664-7.676c-1.543-3.962-7.523,1.3-9.547,2.729c-2.531,1.788-5.043,3.71-7.851,5.049
	c-0.833,0.397-3.492,0.174-1.744-0.659c0.042-0.02,0.082-0.044,0.124-0.065c-0.067-0.039-0.072-0.096,0.021-0.18
	c3.136-2.778,6.341-5.5,9.281-8.489c1.645-1.67,6.338-5.724,5.82-8.587c-0.907-5.012-8.092,1.858-9.619,3.344
	c-3.141,3.055-6.05,6.331-9.127,9.448c-0.457,0.463-3.147,0.833-2.605,0.284c0.039-0.04,0.077-0.081,0.115-0.12
	c-0.309-0.027-0.496-0.112-0.416-0.262c1.842-3.441,4.4-6.435,6.291-9.845c0.79-1.425,2.367-3.835,1.848-5.586
	c-0.752-2.53-2.842-1.585-4.213-0.137C292.817,152.31,289.172,160.059,285.988,167.363z M246.876,201.318
	c2.27-1.175,4.545-2.13,6.514-2.868c5.34-2.001,13.445-4.599,18.785-1.171c9.135-2.84,18.594-4.321,28.091-5.337
	c0.516-0.055,0.825,0.004,0.981,0.124c-1.508-10.293-6.556-19.76-16.721-23.136c-0.105,0.004-0.201-0.001-0.273-0.023
	c-0.098-0.03-0.199-0.055-0.297-0.084c-0.678,0.081-1.266,0.003-1.143-0.28c0.006-0.012,0.011-0.024,0.017-0.037
	c-9.287-2.485-20.332-1.923-28.06,4.26C245.932,179.837,244.694,190.833,246.876,201.318z M269.87,198.612
	c-5.396-3.85-14.131-0.329-19.301,2.327c-4.08,2.096-9.356,5.008-11.68,9.324C248.638,205.008,258.915,200.433,269.87,198.612z
	 M298.726,249.106c2.633-3.502,5.008-7.179,7.209-10.973c-2.958-2.421-5.717-4.821-9.341-6.229
	c-0.431-0.167-0.144-0.477,0.367-0.745c-0.035-0.104-0.04-0.226,0.002-0.371c0.435-1.492,0.802-2.994,1.14-4.5
	c-1.962,0.492-4.09,0.539-5.942,1.46c-4.09,2.034-6.906,6.036-10.682,8.616c-5.398,3.69-11.858,7.111-18.605,6.277
	c-5.673-0.701-9.376-6.634-11.505-11.334c-2.563-5.656-4.263-11.623-5.588-17.675c-4.031,11.126-6.317,25.995,2.653,34.841
	C261.53,261.391,283.88,256.131,298.726,249.106z M369.012,296.893c1.632-1.635,3.22-3.303,4.749-5.013
	c-0.361-0.074-0.645-0.274-0.713-0.64c-1.664-8.906-7.771-16.582-14.138-22.746c-6.427-6.224-13.745-11.867-21.857-15.751
	c-1.027,2.205-2.141,4.354-3.321,6.451C350.584,265.433,364.329,279.465,369.012,296.893z M361.599,429.259
	c-0.002-0.001-0.002-0.002-0.004-0.003c0,0,0,0,0,0C361.596,429.257,361.598,429.258,361.599,429.259z M405.022,430.007
	c-0.096,0.001-0.191,0.003-0.287,0.004c0.098,0.142,0.193,0.29,0.287,0.441V430.007z M431.137,429.803
	c-0.006-0.007-0.015-0.019-0.02-0.025c-2.879-0.019-5.759-0.009-8.638,0.014c-0.328,0.002-0.657,0.008-0.986,0.011H431.137z
	 M432.06,429.781c-0.03,0-0.065-0.001-0.092-0.001c-0.235-0.002-0.472,0-0.707-0.002c0.026,0.009,0.057,0.016,0.088,0.024h0.628
	C432.005,429.796,432.031,429.791,432.06,429.781z M401.906,326.804c0.136-0.187,0.437-0.343,0.792-0.457
	c7.323-10.668,13.86-22.306,16.445-34.803c3.426-16.559-4.372-33.136-14.449-46.066c-21.03-26.986-60.066-50.418-95.264-41.05
	c6.203,4.749,5.133,19.439,2.016,28.157c0.192,0.184,0.245,0.456,0.049,0.827c-2.854,5.386-6.083,10.927-9.848,16.056
	c-0.035,0.192-0.166,0.391-0.42,0.578c-5.036,6.744-11.03,12.72-18.381,16.589c-8.023,4.223-17.229,5.495-25.721,8.507
	c-1.892,0.67-6.394,1.428-7.134,3.718c-0.815,2.526-0.263,5.597-0.103,8.179c0.004,0.056-0.006,0.108-0.014,0.16
	c7.104,1.006,14.17,2.232,21.142,4.063c1.692,0.444,3.505,0.944,5.37,1.51c0.119-0.025,0.238-0.042,0.357-0.038
	c31.561,0.908,52.549-23.279,61.851-51.211c0.414-1.245,3.311-1.256,2.775,0.35c-0.979,2.938-2.088,5.821-3.315,8.635
	c8.296,3.834,15.923,9.378,22.471,15.72c6.635,6.426,13.189,14.117,15.227,23.361c2.877-3.424,5.488-7.041,7.674-10.967
	c0.529-0.949,3.461-1.132,2.73,0.181c-4.27,7.668-10.275,14.17-16.6,20.315c0.037,0.172,0.081,0.343,0.117,0.516
	c0.146,0.699-1.057,1.25-1.961,1.26c-2.823,2.694-5.682,5.334-8.454,7.986c-9.941,9.511-21.613,20.14-25.844,33.689
	c-2.405,7.702-1.794,15.704-1.02,23.642c0.767,7.867,1.997,15.743,4.283,23.326c4.604,15.268,12.806,28.554,24.904,39.003
	c0.19,0.164,0.217,0.344,0.142,0.519c0.177,0.034,0.41,0.074,0.688,0.076c0.947,0.007,1.895,0.005,2.843-0.001
	c3.286-0.021,6.573-0.068,9.859-0.118c8.981-0.135,17.963-0.298,26.944-0.439c0.475-0.144,0.968-0.175,1.271-0.02
	c8.28-0.13,16.562-0.265,24.843-0.282c0.644-0.001,1.651-0.095,2.803-0.191c0.535-0.39,1.121-0.394,1.729-0.128
	c1.007-0.063,2.038-0.095,2.993-0.056c-0.027-0.029-0.048-0.054-0.077-0.085c-1.04-1.085-2.094-2.158-3.149-3.229
	c-3.105-3.154-6.219-6.3-9.303-9.475c-7.748-7.977-15.547-16.019-22.483-24.725c-5.855-7.348-9.159-14.255-9.878-23.818
	c-0.794-10.545,1.027-20.809,5.415-30.14c-0.391-0.073-0.592-0.27-0.319-0.635c0.699-0.938,1.4-1.886,2.1-2.841
	C399.17,330.845,400.464,328.791,401.906,326.804z M513.327,322.395c-16.38,9.952-33.518,17.281-52.742,10.401
	c-9.406-3.367-18.261-8.335-25.073-15.762c-6.059-6.605-10.538-14.307-14.391-22.339c-3.882,13.92-11.941,26.659-20.427,38.272
	c-0.36,0.652-0.709,1.31-1.043,1.974c0.471-0.008,0.888,0.125,1.045,0.474c7.655,16.992,14.105,33.747,31.426,43.02
	c22.562,12.079,46.806,12.488,70.296,3.606c1.375-8.275,2.911-16.526,4.446-24.774c-0.088-0.141-0.064-0.333,0.107-0.58
	c0.416-2.23,0.832-4.46,1.239-6.691c1.207-6.603,2.42-13.205,3.601-19.812C512.173,328.164,513.231,324.423,513.327,322.395z
	 M514.763,330.749c-0.037,0.026-0.081,0.051-0.117,0.077c0.009-0.054,0.018-0.107,0.025-0.162c-0.013,0.009-0.025,0.018-0.039,0.026
	c-0.094,0.527-0.191,1.054-0.287,1.581L514.763,330.749z M313.383,406.845c-0.601,5.162-1.39,9.37-6.864,11.26
	c-6.506,2.248-13.677,2.245-20.483,2.421c-15.722,0.406-31.444,0.791-47.165,1.25c-5.004,0.146-10.007,0.303-15.01,0.477
	c-0.172,0.065-0.351,0.117-0.528,0.142c-7.123,1.015-14.532,0.964-21.862,0.836c-3.512,14.365-11.978,26.587-25.528,33.149
	c-10.964,5.309-23.479,7.276-35.599,6.968c-26.6-0.678-51.062-14.72-57.541-41.828c-0.008-0.032-0.004-0.063-0.007-0.094
	c-8.261,0.165-16.523,0.331-24.785,0.496c-1.978,0.04-1.313-1.965,0.291-1.997c10.235-0.205,20.471-0.41,30.707-0.614
	c-0.214-1.943-0.282-3.917-0.288-5.86c-0.027-10.577,2.158-21.64,7.853-30.689c8.214-13.057,22.124-20.194,37.156-22.305
	c16.234-2.279,38.161-2.062,49.984,11.349c11.463,13.001,11.59,32.639,11.624,48.991c0.001,0.5-0.493,0.874-1.074,1.044
	c1.734,0.011,3.48,0.037,5.239,0.072c0.774-0.386,1.927-0.446,2.171,0.042c2.241,0.046,4.492,0.09,6.742,0.1
	c1.621-0.685,3.818-0.535,5.48-0.62c4.984-0.252,9.974-0.418,14.962-0.58c14.036-0.454,28.075-0.816,42.114-1.177
	c6.343-0.163,12.687-0.322,19.03-0.488c7.342-0.193,19.212,0.602,20.187-8.907c0.575-5.624,4.32-24.756-3.594-27.428
	c-0.141,0.039-0.291,0.065-0.456,0.065c-24.665,0-49.335,0.142-74,0c-9.901-0.057-22.395-1.35-23.62,11.503
	c-0.799,8.373-0.459,17.192,1.092,25.464c0.271,1.448-2.631,2.2-2.898,0.776c-1.668-8.9-2.52-19.253-0.848-28.187
	c1.612-8.625,8.91-11.6,17.055-11.821c27.76-0.753,55.655,0.024,83.43,0.024c3.228-2.291,2.967-9.416,0.73-12.72
	c-1.387,0.642-2.897,1.072-4.375,1.404c-0.266,0.319-0.74,0.592-1.303,0.626c-9.535,0.579-9.24-16.121-8.671-22.188
	c0.606-6.471,2.729-16.46,9.522-18.546c-0.537-0.578,1.752-1.579,2.523-1.234c0.591,0.265,1.121,0.585,1.605,0.943
	c0.027,0.003,0.053,0.004,0.08,0.008c0.506,0.07,0.63,0.262,0.535,0.492c2.49,2.225,3.467,5.705,3.926,9.104
	c0.712,5.262,1.207,10.619,1.738,15.904c0.387,3.863,0.52,7.772-2.082,10.92c-0.335,0.405-0.715,0.761-1.114,1.092
	c1.951,2.251,2.334,6.398,1.956,9.087c-0.384,2.729-1.725,4.668-3.758,5.821C317.026,383.014,314.188,399.924,313.383,406.845z
	 M308.913,348.772c-0.482-5.39,0.021-14.234-4.595-18.173c-7.351-0.479-8.731,14.759-8.837,19.56
	c-0.076,3.423-0.012,17.297,5.554,18.082c0.063-0.019,0.126-0.037,0.19-0.049C312.47,366.032,309.681,357.326,308.913,348.772z
	 M86.387,421.356c-0.175,0.003-0.349,0.007-0.523,0.01c0.002,0.006,0.003,0.012,0.005,0.019L86.387,421.356z M128.675,389.783
	c0.162-0.028,0.329-0.047,0.491-0.056c0.08-0.076,0.229-0.169,0.488-0.289c0.342-0.158,0.689-0.311,1.042-0.46
	C130.026,389.222,129.35,389.489,128.675,389.783z M157.829,431.335c-0.122,0.072-0.24,0.151-0.364,0.222l0.224-0.087
	L157.829,431.335z M165.365,424.101c-0.018,0.026-0.036,0.051-0.054,0.077l0.043-0.041
	C165.354,424.136,165.362,424.109,165.365,424.101z M164.04,396.638c-3.261-4.687-8.114-7.558-13.447-8.844l-8.496-0.75
	c-3.754,0.216-7.47,1.119-10.804,2.656c-0.221,0.102-0.708,0.197-1.168,0.244c-0.021,0.112-0.263,0.264-0.861,0.451
	c-12.663,3.968-12.87,19.649-7.534,29.614c3.162,5.905,9.242,10.761,15.991,12.941l3.857,0.935c4.888,0.79,9.898,0.093,14.24-2.668
	C166.227,424.602,171.444,407.282,164.04,396.638z M282.353,315.684c1.711-0.472,1.391-1.688-0.324-1.214
	c-3.356,0.926-6.361,2.452-8.383,5.371c-2.221,3.207-2.262,7.478-1.996,11.209c0.056,0.773,2.968,0.202,2.898-0.776
	C274.092,323.885,275.419,317.598,282.353,315.684z M202.454,249.258c0.582-2.296,1.302-4.492,2.598-6.494
	c0.322-0.499-1.066-0.411-1.189-0.391c-0.602,0.097-1.334,0.316-1.682,0.854c-1.296,2.001-2.016,4.197-2.598,6.494
	C199.385,250.503,202.25,250.062,202.454,249.258z M200.92,233.688c-0.664-0.028-1.522,0.227-1.908,0.81
	c-1.129,1.711-2.032,3.477-2.693,5.419c-0.362,1.063,2.558,0.684,2.904-0.336c0.61-1.791,1.461-3.394,2.502-4.97
	C202.11,234.025,201.398,233.708,200.92,233.688z M237.714,261.398c0.04,0.127,0.074,0.256,0.106,0.385
	c0.002,0.006,0.054,0.381,0.044,0.16c0.031,0.717,0.676,0.98,1.334,0.928c0.533-0.042,1.631-0.452,1.6-1.158
	c-0.021-0.482-0.125-0.906-0.273-1.363c-0.074-0.23-0.152-0.458-0.225-0.689c-0.04-0.127-0.074-0.256-0.106-0.385
	c-0.002-0.006-0.054-0.38-0.044-0.16c-0.031-0.717-0.676-0.98-1.334-0.928c-0.533,0.042-1.631,0.452-1.6,1.158
	c0.021,0.482,0.125,0.906,0.273,1.363C237.563,260.939,237.642,261.168,237.714,261.398z M245.998,261.083c0-0.433,0-0.866,0-1.299
	c0-0.738-0.692-1.061-1.357-1.017c-0.599,0.039-1.586,0.474-1.586,1.209c0,0.433,0,0.866,0,1.299c0,0.738,0.692,1.061,1.357,1.017
	C245.011,262.252,245.998,261.817,245.998,261.083z M333.768,164.805c21.292-5.594,43.401-7.832,65.386-7.591
	c22.801,0.25,46.286,3.512,67.28,12.758c1.263,0.556,3.36-1.259,1.658-2.009c-20.555-9.052-43.227-12.213-65.52-12.882
	c-23.24-0.697-46.856,1.748-69.357,7.659C331.414,163.212,331.97,165.277,333.768,164.805z M352.786,147.736
	c16.308-1.21,32.643-1.283,48.986-1.283c1.137,0,3.066-1.726,1.105-1.726c-16.589,0.001-33.169,0.085-49.721,1.313
	C351.692,146.149,350.783,147.884,352.786,147.736z M150.501,412.68c-1.287,2.405-3.231,5.174-6.267,5.174
	c-2.988,0-4.942-3.098-5.925-5.494c-0.45-1.098-3.313-0.234-2.898,0.776c3.755,9.151,13.598,7.548,17.809-0.319
	C153.912,411.524,150.99,411.766,150.501,412.68z M467.281,178.255c1.788-4.28,5.791-7.07,10.142-8.324
	c0.385-0.257,1.251-0.577,1.529-0.569c1.13,0.034,2.505,0.191,3.578,0.765c0.338-0.081,0.682-0.07,0.899,0.088
	c4.479,3.242,4.707,7.368,2.774,10.771c0.153,0.001,0.295,0.02,0.393,0.081c3.809,2.394,11.136,10.417,3.809,13.189
	c-2.392,0.905-4.921-0.992-6.706-2.364c-1.97-1.514-3.752-3.296-5.7-4.839c-3.611,0.922-7.551,0.251-10.418-3.127
	c-0.235-0.277-0.115-0.56,0.159-0.778C466.696,182.008,466.452,180.239,467.281,178.255z M491.392,190.338
	c-0.91,0.911-1.821,1.821-2.731,2.732c0.38,0.15,0.76,0.271,1.138,0.315C491.14,193.542,491.527,191.341,491.392,190.338z
	 M485.268,182.368c-1.305,1.653-3.116,3.042-5.148,3.946c1.167,0.962,2.259,2.033,3.411,3c0.604-0.604,1.209-1.209,1.813-1.813
	c0.388-0.388,1.001-0.59,1.537-0.412c0.453,0.151,0.632,0.654,0.271,1.015c-0.666,0.667-1.333,1.334-2,2
	c-0.113,0.113-0.248,0.204-0.393,0.28c0.787,0.689,1.657,1.423,2.563,1.999c0.799-0.799,1.598-1.598,2.396-2.396
	c0.335-0.335,0.99-0.473,1.462-0.416c-0.339-1.05-0.86-2.026-1.535-2.91C488.403,185.036,486.941,183.553,485.268,182.368z
	 M471.629,184.458c-0.171,0.011-0.332,0.008-0.495,0.007c1.807,1.325,3.853,1.699,5.813,1.402c0.361-0.343,1.422-0.714,1.898-0.508
	c4.52-1.709,7.895-6.767,5.493-11.131c-0.13,1.239-0.609,2.467-1.228,3.509C480.62,181.938,476.466,184.154,471.629,184.458z
	 M470.166,182.485c-0.084,0.088-0.188,0.158-0.303,0.213c0.42,0.426,1.005,0.73,1.805,0.832c4.381,0.558,8.449-2.799,9.945-6.732
	c0.984-2.588,0.569-4.758-1.242-5.832C477.036,174.85,473.704,178.784,470.166,182.485z M469.054,181.011
	c3.25-3.454,6.342-7.083,9.43-10.679c-0.021-0.003-0.039-0.007-0.059-0.01c-0.117,0.052-0.256,0.102-0.421,0.146
	c-3.661,0.969-7.245,3.753-8.579,7.402C469.064,178.854,468.886,180.003,469.054,181.011z M291.138,204.415
	c-0.193-0.644-0.14-1.401,0.457-1.822c0.379-0.268,0.883-0.851,0.242-1.172c-0.594-0.299-1.531-0.11-2.055,0.26
	c-1.178,0.832-1.988,2.03-1.543,3.511C288.557,206.246,291.447,205.446,291.138,204.415z" fill="#484848"></path>
</svg>