<svg version="1.1" id="Layer_1" xmlns="http://www.w3.org/2000/svg" x="0" y="0" viewBox="0 0 256 256" style="enable-background:new 0 0 256 256" xml:space="preserve"><style>.st0{fill:#4671c6}.st3{fill:#a4c9ff}.st4{fill:#3762cc}.st5{fill:#e0ebfc}.st7{fill:#b9befc}.st8{fill:#ffea92}</style><path class="st0" d="M128 249H20.018a4.695 4.695 0 0 1-4.695-4.695V105.102a4.695 4.695 0 0 1 4.695-4.695h99.591a8.391 8.391 0 0 1 8.391 8.391V249zM128 249h107.982a4.695 4.695 0 0 0 4.695-4.695V105.102a4.695 4.695 0 0 0-4.695-4.695h-99.591a8.391 8.391 0 0 0-8.391 8.391V249z"/><path class="st4" d="M128 251H20.018a6.703 6.703 0 0 1-6.695-6.695V105.102a6.703 6.703 0 0 1 6.695-6.694h99.591c5.729 0 10.392 4.661 10.392 10.391V249a2.002 2.002 0 0 1-2.001 2zM20.018 102.407a2.698 2.698 0 0 0-2.695 2.694v139.203a2.698 2.698 0 0 0 2.695 2.695H126V108.798a6.4 6.4 0 0 0-6.392-6.391h-99.59z"/><path class="st4" d="M235.982 251H128a2 2 0 0 1-2-2V108.798c0-5.729 4.662-10.391 10.392-10.391h99.591a6.703 6.703 0 0 1 6.695 6.694v139.203a6.704 6.704 0 0 1-6.696 6.696zM130 247h105.982a2.698 2.698 0 0 0 2.695-2.695V105.102a2.698 2.698 0 0 0-2.695-2.694h-99.591a6.4 6.4 0 0 0-6.392 6.391V247z"/><path class="st7" d="M221.898 92.66v7.747H34.102V92.66c-7.199.782-7.613 7.747-7.613 7.747v140.847h203.022V100.407s-.414-6.964-7.613-7.747z"/><path class="st4" d="M229.511 243.253H26.489a2 2 0 0 1-2-2V100.407c0-.04.001-.079.004-.119.178-2.992 2.37-8.854 9.394-9.616.571-.065 1.129.121 1.552.5s.664.92.664 1.488v5.747h183.795V92.66a1.997 1.997 0 0 1 2.216-1.988c7.023.763 9.216 6.624 9.394 9.616.003.04.004.079.004.119v140.846a2.002 2.002 0 0 1-2.001 2zm-201.022-4H227.51V100.482c-.051-.589-.476-3.862-3.613-5.259v5.184a2 2 0 0 1-2 2H34.103a2 2 0 0 1-2-2v-5.183c-3.188 1.421-3.574 4.78-3.613 5.253v138.776z"/><path class="st5" d="M128 241.253H34.102V92.66h86.182a7.716 7.716 0 0 1 7.716 7.716v140.877zM128 241.253h93.898V92.66h-86.182a7.716 7.716 0 0 0-7.716 7.716v140.877z"/><path class="st7" d="M209.535 120.228h-66.667a3.286 3.286 0 1 1 0-6.572h66.667a3.286 3.286 0 0 1 0 6.572zM209.535 139.007h-66.667a3.286 3.286 0 1 1 0-6.572h66.667a3.286 3.286 0 1 1 0 6.572zM209.535 195.346h-66.667a3.286 3.286 0 1 1 0-6.572h66.667c4.371-.001 4.378 6.572 0 6.572zM209.535 214.126h-66.667a3.286 3.286 0 1 1 0-6.572h66.667c4.371-.001 4.378 6.572 0 6.572zM114.385 139.007H83.164a3.286 3.286 0 1 1 0-6.572h31.221a3.286 3.286 0 1 1 0 6.572zM114.385 157.787H47.717a3.286 3.286 0 1 1 0-6.572h66.667a3.286 3.286 0 0 1 3.286 3.286 3.285 3.285 0 0 1-3.285 3.286zM73.539 139.007h-27.23a1.878 1.878 0 0 1-1.878-1.878v-21.596c0-1.037.841-1.878 1.878-1.878h27.23c1.037 0 1.878.841 1.878 1.878v21.596a1.878 1.878 0 0 1-1.878 1.878zM210.943 176.566h-69.484a1.878 1.878 0 0 1-1.878-1.878v-21.596c0-1.037.841-1.878 1.878-1.878h69.484c1.037 0 1.878.841 1.878 1.878v21.596a1.878 1.878 0 0 1-1.878 1.878z"/><path style="fill:#6bdddd" d="M202.027 58.893 170.201 130.1H87.698L55.872 58.893z"/><path class="st4" d="M128 243.254H34.103a2 2 0 0 1-2-2V92.66a2 2 0 0 1 2-2h86.182c5.357 0 9.716 4.358 9.716 9.716v140.878a2.002 2.002 0 0 1-2.001 2zm-91.897-4H126V100.376a5.723 5.723 0 0 0-5.716-5.716H36.103v144.594z"/><path class="st4" d="M221.897 243.254H128a2 2 0 0 1-2-2V100.376c0-5.357 4.358-9.716 9.716-9.716h86.182a2 2 0 0 1 2 2v148.594a2.002 2.002 0 0 1-2.001 2zm-91.897-4h89.897V94.66h-84.182a5.723 5.723 0 0 0-5.716 5.716v138.878z"/><path class="st0" d="M177.551 113.655h-34.684a3.287 3.287 0 0 0 0 6.573h31.746l2.938-6.573z"/><path class="st8" d="M170.199 133.354a3.256 3.256 0 0 1-2.969-4.583l31.826-71.206a3.253 3.253 0 0 1 4.299-1.643 3.256 3.256 0 0 1 1.643 4.299l-31.826 71.206a3.256 3.256 0 0 1-2.973 1.927z"/><path class="st7" d="M99.8 215.65H59.126a3.254 3.254 0 0 1-3.254-3.254v-40.674a3.254 3.254 0 0 1 3.254-3.254H99.8a3.254 3.254 0 0 1 3.254 3.254v40.674a3.255 3.255 0 0 1-3.254 3.254zM120.387 233.507H34.102c-7.199.782-7.613 7.747-7.613 7.747H128c0-.001-.414-6.965-7.613-7.747zM221.898 233.507h-86.284c-7.199.782-7.613 7.747-7.613 7.747h101.511c-.001-.001-.415-6.965-7.614-7.747z"/><path class="st4" d="M128 243.253H26.489a2.002 2.002 0 0 1-1.996-2.119c.178-2.992 2.37-8.853 9.394-9.615.071-.008.144-.012.216-.012h86.284c.072 0 .145.004.216.012 7.023.763 9.216 6.623 9.394 9.615a2.002 2.002 0 0 1-1.997 2.119zm-98.973-4h96.436c-.651-1.529-2.077-3.372-5.19-3.746H34.217c-3.112.374-4.538 2.214-5.19 3.746z"/><path class="st4" d="M229.511 243.253H128a2.002 2.002 0 0 1-1.996-2.119c.178-2.992 2.37-8.853 9.394-9.615.071-.008.144-.012.216-.012h86.284c.072 0 .145.004.216.012 7.023.763 9.216 6.623 9.394 9.615a2.002 2.002 0 0 1-1.997 2.119zm-98.973-4h96.436c-.651-1.529-2.077-3.372-5.19-3.746h-86.056c-3.112.374-4.539 2.214-5.19 3.746z"/><path class="st0" d="M114.385 120.228H83.164a3.286 3.286 0 1 1 0-6.572h31.221a3.286 3.286 0 0 1 0 6.572z"/><path class="st8" d="M84.727 131.428 52.901 60.221a3.256 3.256 0 0 1 5.942-2.656l31.826 71.206a3.256 3.256 0 0 1-5.942 2.657z"/><path class="st5" d="M170.343 78.572 128 54.414 85.657 78.572c.217.372.529.688.916.909l38.959 22.228a4.983 4.983 0 0 0 4.938 0l38.959-22.228c.385-.221.697-.537.914-.909z"/><path class="st4" d="M128 104.358a6.992 6.992 0 0 1-3.46-.913L85.581 81.219a4.51 4.51 0 0 1-1.654-1.643 2 2 0 0 1 .739-2.741l42.343-24.158a2.002 2.002 0 0 1 1.982 0l42.343 24.158a2 2 0 0 1 .737 2.744 4.513 4.513 0 0 1-1.649 1.638l-38.962 22.229a6.99 6.99 0 0 1-3.46.912zM89.354 78.766l37.169 21.205c.912.52 2.043.52 2.955 0l37.168-21.205L128 56.717 89.354 78.766z"/><path class="st5" d="M170.343 31.769a2.49 2.49 0 0 0-.918-.91L130.54 8.673A5.134 5.134 0 0 0 128 8v46.415l42.343 24.158c.218-.375.339-.806.339-1.254V33.023c0-.449-.121-.88-.339-1.254z"/><path class="st3" d="M170.343 31.769a2.49 2.49 0 0 0-.918-.91L130.54 8.673A5.134 5.134 0 0 0 128 8v46.415l42.343 24.158c.218-.375.339-.806.339-1.254V33.023c0-.449-.121-.88-.339-1.254zM85.657 31.769a2.49 2.49 0 0 1 .918-.91L125.46 8.673A5.134 5.134 0 0 1 128 8v46.415L85.657 78.572a2.494 2.494 0 0 1-.339-1.254V33.023c0-.449.121-.88.339-1.254z"/><path class="st5" d="M128.733 79.083c-.072-.072-.122-.16-.185-.24.062.08.113.168.185.24z"/><path class="st4" d="M170.341 80.572c-.336 0-.677-.085-.989-.263l-42.343-24.158A2.001 2.001 0 0 1 126 54.414V8a2 2 0 0 1 2-2c1.236 0 2.458.324 3.531.937l38.885 22.185c.687.393 1.258.96 1.655 1.641v.001c.399.686.61 1.468.61 2.261V77.32c0 .791-.211 1.572-.609 2.258a2 2 0 0 1-1.731.994zM130 53.253l38.682 22.069V33.023a.497.497 0 0 0-.25-.429L130 10.668v42.585z"/><path class="st4" d="M85.659 80.572c-.689 0-1.36-.356-1.731-.996a4.506 4.506 0 0 1-.609-2.258V33.022a4.493 4.493 0 0 1 2.267-3.903l38.883-22.184A7.151 7.151 0 0 1 128 6a2 2 0 0 1 2 2v46.415a2 2 0 0 1-1.009 1.737L86.648 80.31a2.001 2.001 0 0 1-.989.262zM126 10.668 87.566 32.596a.488.488 0 0 0-.18.178l-.001.001a.496.496 0 0 0-.067.248v42.3L126 53.254V10.668zM85.657 31.769h.01-.01z"/><path class="st4" d="M128 104.363a7 7 0 0 1-3.458-.916L85.581 81.218a4.492 4.492 0 0 1-2.262-3.9V33.023c0-.793.211-1.575.61-2.261a2.004 2.004 0 0 1 2.72-.731l42.343 24.158a2.001 2.001 0 0 1 1.009 1.737v46.437a2.002 2.002 0 0 1-2.001 2zM87.318 35.019v42.3a.48.48 0 0 0 .247.426L126 99.674V57.088L87.318 35.019z"/><path class="st4" d="M128 104.362a2 2 0 0 1-2-2V55.927a2 2 0 0 1 1.009-1.737l42.343-24.158a2.002 2.002 0 0 1 2.719.729c.4.686.611 1.468.611 2.263v44.295a4.5 4.5 0 0 1-2.257 3.898l-38.964 22.229a7.016 7.016 0 0 1-3.461.916zm2-47.274v42.585l38.437-21.929a.49.49 0 0 0 .245-.426v-42.3L130 57.088z"/></svg>