<svg width="311" height="437" viewBox="0 0 311 437" fill="none" xmlns="http://www.w3.org/2000/svg">
<path d="M288 359.8C288.8 361.133 289.2 362.867 289.2 365C289.2 366.867 288.267 368.733 286.4 370.6C284.8 372.2 282.8 373 280.4 373H189.2C181.467 373 176 369.933 172.8 363.8L124 276.6V362.2C124 365.133 122.933 367.667 120.8 369.8C118.667 371.933 116.133 373 113.2 373H36.8C33.8667 373 31.3333 371.933 29.2 369.8C27.0667 367.667 26 365.133 26 362.2V103.8C26 100.867 27.0667 98.3333 29.2 96.2C31.3333 94.0666 33.8667 93 36.8 93H113.2C116.133 93 118.667 94.0666 120.8 96.2C122.933 98.3333 124 100.867 124 103.8V183L169.2 101.8C172.133 95.9333 177.467 93 185.2 93H273.6C276 93 278 93.9333 279.6 95.8C281.467 97.4 282.4 99.2667 282.4 101.4C282.4 103.267 282 104.867 281.2 106.2L209.2 227L288 359.8Z" fill="url(#paint0_linear_51_2)"/>
<path d="M51.6053 409.118C51.6773 409.238 51.7133 409.394 51.7133 409.586C51.7133 409.754 51.6293 409.922 51.4613 410.09C51.3173 410.234 51.1373 410.306 50.9213 410.306H42.7133C42.0173 410.306 41.5253 410.03 41.2373 409.478L36.8453 401.63V409.334C36.8453 409.598 36.7493 409.826 36.5573 410.018C36.3653 410.21 36.1373 410.306 35.8733 410.306H28.9973C28.7333 410.306 28.5053 410.21 28.3133 410.018C28.1213 409.826 28.0253 409.598 28.0253 409.334V386.078C28.0253 385.814 28.1213 385.586 28.3133 385.394C28.5053 385.202 28.7333 385.106 28.9973 385.106H35.8733C36.1373 385.106 36.3653 385.202 36.5573 385.394C36.7493 385.586 36.8453 385.814 36.8453 386.078V393.206L40.9133 385.898C41.1773 385.37 41.6573 385.106 42.3533 385.106H50.3093C50.5253 385.106 50.7053 385.19 50.8493 385.358C51.0173 385.502 51.1013 385.67 51.1013 385.862C51.1013 386.03 51.0653 386.174 50.9933 386.294L44.5133 397.166L51.6053 409.118ZM83.1945 385.106H91.0065C91.8705 385.106 92.4105 385.502 92.6265 386.294L100.654 409.262C100.678 409.334 100.69 409.454 100.69 409.622C100.69 409.766 100.606 409.922 100.438 410.09C100.294 410.234 100.114 410.306 99.8985 410.306H93.2385C92.5185 410.306 92.0505 410.006 91.8345 409.406L90.9705 407.03H83.2305L82.3665 409.406C82.1505 410.006 81.6825 410.306 80.9625 410.306H74.3025C74.0865 410.306 73.8945 410.234 73.7265 410.09C73.5825 409.922 73.5105 409.766 73.5105 409.622C73.5105 409.454 73.5225 409.334 73.5465 409.262L81.5745 386.294C81.7905 385.502 82.3305 385.106 83.1945 385.106ZM85.0665 400.01H89.1345L87.0825 393.314L85.0665 400.01ZM132.775 410.306H125.431C125.167 410.306 124.939 410.21 124.747 410.018C124.555 409.826 124.459 409.598 124.459 409.334V386.078C124.459 385.814 124.555 385.586 124.747 385.394C124.939 385.202 125.167 385.106 125.431 385.106H132.775C133.039 385.106 133.267 385.202 133.459 385.394C133.651 385.586 133.747 385.814 133.747 386.078V409.334C133.747 409.598 133.651 409.826 133.459 410.018C133.267 410.21 133.039 410.306 132.775 410.306ZM180.107 402.926C180.371 402.926 180.599 403.022 180.791 403.214C180.983 403.406 181.079 403.634 181.079 403.898V409.334C181.079 409.598 180.983 409.826 180.791 410.018C180.599 410.21 180.371 410.306 180.107 410.306H159.551C159.287 410.306 159.059 410.21 158.867 410.018C158.675 409.826 158.579 409.598 158.579 409.334V404.15C158.579 403.67 158.759 403.25 159.119 402.89L169.199 392.414H159.731C159.467 392.414 159.239 392.318 159.047 392.126C158.855 391.934 158.759 391.706 158.759 391.442V386.078C158.759 385.814 158.855 385.586 159.047 385.394C159.239 385.202 159.467 385.106 159.731 385.106H179.639C179.903 385.106 180.131 385.202 180.323 385.394C180.515 385.586 180.611 385.814 180.611 386.078V391.19C180.611 391.67 180.455 392.066 180.143 392.378L170.603 402.926H180.107ZM214.556 403.286H225.644C225.908 403.286 226.136 403.382 226.328 403.574C226.52 403.766 226.616 403.994 226.616 404.258V409.334C226.616 409.598 226.52 409.826 226.328 410.018C226.136 410.21 225.908 410.306 225.644 410.306H206.888C206.624 410.306 206.396 410.21 206.204 410.018C206.012 409.826 205.916 409.598 205.916 409.334V386.078C205.916 385.814 206.012 385.586 206.204 385.394C206.396 385.202 206.624 385.106 206.888 385.106H225.356C225.62 385.106 225.848 385.202 226.04 385.394C226.232 385.586 226.328 385.814 226.328 386.078V391.154C226.328 391.418 226.232 391.646 226.04 391.838C225.848 392.03 225.62 392.126 225.356 392.126H214.556V394.394H224.564C224.828 394.394 225.056 394.49 225.248 394.682C225.44 394.874 225.536 395.102 225.536 395.366V400.046C225.536 400.31 225.44 400.538 225.248 400.73C225.056 400.922 224.828 401.018 224.564 401.018H214.556V403.286ZM267.022 385.106H273.538C273.802 385.106 274.03 385.202 274.222 385.394C274.414 385.586 274.51 385.814 274.51 386.078V409.334C274.51 409.598 274.414 409.826 274.222 410.018C274.03 410.21 273.802 410.306 273.538 410.306H267.85C267.226 410.306 266.734 410.03 266.374 409.478L260.29 400.298V409.334C260.29 409.598 260.194 409.826 260.002 410.018C259.81 410.21 259.582 410.306 259.318 410.306H252.802C252.538 410.306 252.31 410.21 252.118 410.018C251.926 409.826 251.83 409.598 251.83 409.334V386.078C251.83 385.814 251.926 385.586 252.118 385.394C252.31 385.202 252.538 385.106 252.802 385.106H258.49C259.162 385.106 259.654 385.382 259.966 385.934L266.05 395.906V386.078C266.05 385.814 266.146 385.586 266.338 385.394C266.53 385.202 266.758 385.106 267.022 385.106Z" fill="url(#paint1_linear_51_2)"/>
<defs>
<linearGradient id="paint0_linear_51_2" x1="253.217" y1="210.913" x2="0" y2="210.913" gradientUnits="userSpaceOnUse">
<stop offset="0.2" stop-color="#5070C0"/>
<stop offset="0.969" stop-color="#E2EBFA"/>
</linearGradient>
<linearGradient id="paint1_linear_51_2" x1="311" y1="406.653" x2="25.6853" y2="406.653" gradientUnits="userSpaceOnUse">
<stop offset="0.2" stop-color="#BABEF7"/>
<stop offset="0.795" stop-color="#BABEF7"/>
<stop offset="0.95" stop-color="#7C95B1"/>
</linearGradient>
</defs>
</svg>
